<?xml version="1.0" encoding="utf-8"?>
<!-- Generator: Adobe Illustrator 26.3.1, SVG Export Plug-In . SVG Version: 6.00 Build 0)  -->
<svg version="1.1" id="Calque_1" xmlns="http://www.w3.org/2000/svg" xmlns:xlink="http://www.w3.org/1999/xlink" x="0px" y="0px"
	 viewBox="0 0 16 16" style="enable-background:new 0 0 16 16;" xml:space="preserve">
<g>
	<g>
		<path d="M7.42,4.49c-1.1-0.14-2.13,0.62-2.28,1.73C4.98,7.39,5.86,8.37,6.95,8.64c1.13,0.28,2.46-0.11,3.23-0.99
			c0.86-0.99,0.33-2.17-0.5-2.98C9.16,4.16,8.27,3.59,8.26,2.78c-0.01-0.82,0.73-1.53,1.39-1.9C9.93,0.71,9.68,0.28,9.4,0.44
			C8.37,1.02,7.34,2.3,7.95,3.52c0.53,1.05,2.68,1.97,2.13,3.38C9.81,7.57,9,8.01,8.34,8.16C7.67,8.31,6.92,8.23,6.35,7.83
			c-0.61-0.42-0.9-1.19-0.63-1.9c0.27-0.7,0.98-1.04,1.7-0.94C7.74,5.03,7.74,4.53,7.42,4.49L7.42,4.49z"/>
	</g>
</g>
<g>
	<g>
		<path d="M5.99,9.86c0.81,0.07,1.62,0.08,2.43,0c0.38-0.04,0.77-0.09,1.15-0.11c0.19-0.01,0.38-0.02,0.58-0.01
			c0.16,0,0.49-0.02,0.63,0.07c-0.04-0.05-0.08-0.1-0.11-0.15c0.02,0.05-0.33,0.46-0.38,0.53c-0.14,0.2-0.29,0.4-0.42,0.61
			c-0.27,0.39-0.52,0.8-0.73,1.23c-0.19,0.39-0.34,0.8-0.51,1.2c-0.16,0.39-0.34,0.92-0.66,1.21c0.06-0.02,0.12-0.05,0.18-0.07
			c-0.02,0-0.03,0-0.05,0c0.06,0.02,0.12,0.05,0.18,0.07C8.2,14.38,8.2,14.2,8.18,14.12c-0.03-0.11-0.05-0.22-0.08-0.33
			c-0.06-0.23-0.12-0.45-0.19-0.68C7.78,12.73,7.61,12.36,7.43,12c-0.39-0.76-0.89-1.46-1.38-2.16c-0.18-0.26-0.62-0.01-0.43,0.25
			c0.65,0.92,1.31,1.85,1.72,2.9c0.1,0.26,0.18,0.52,0.25,0.78c0.07,0.28,0.09,0.62,0.23,0.87c0.09,0.16,0.28,0.27,0.46,0.17
			c0.21-0.11,0.35-0.44,0.46-0.64c0.24-0.45,0.42-0.94,0.62-1.42c0.22-0.54,0.5-1.04,0.82-1.52c0.15-0.23,0.31-0.46,0.47-0.69
			c0.16-0.22,0.37-0.46,0.49-0.71c0.27-0.6-0.62-0.6-0.97-0.61C9.48,9.22,8.8,9.34,8.13,9.39C7.42,9.44,6.7,9.43,5.99,9.36
			C5.67,9.33,5.67,9.83,5.99,9.86L5.99,9.86z"/>
	</g>
</g>
<g>
	<g>
		<path d="M10.35,10.91c0.09,0,0.18,0,0.27,0.02c0.05,0.01,0.1,0.02,0.15,0.03c0.01,0,0.05,0.02,0.06,0.02
			c0.06-0.01-0.03-0.01,0-0.01c-0.02,0.01,0.01-0.03-0.01,0.02c-0.01,0.02-0.01,0.05-0.02,0.07c-0.03,0.07-0.08,0.13-0.14,0.18
			c-0.12,0.12-0.26,0.21-0.39,0.31c-0.17,0.12-0.33,0.24-0.5,0.37c-0.27,0.19-0.94,0.54-0.59,0.95c0.25,0.3,0.75,0.26,1.09,0.26
			c0.48,0,0.95-0.02,1.43-0.04c0.32-0.01,0.32-0.51,0-0.5c-0.4,0.02-0.8,0.03-1.2,0.04c-0.2,0-0.39,0-0.59-0.01
			c-0.08,0-0.32,0-0.36-0.09c0.01,0.04,0.02,0.08,0.03,0.13c0,0.01-0.07,0.06,0,0c0.03-0.02,0.05-0.04,0.08-0.06
			c0.07-0.05,0.14-0.1,0.2-0.15c0.14-0.1,0.27-0.2,0.41-0.3c0.25-0.18,0.53-0.35,0.75-0.57c0.2-0.2,0.36-0.5,0.26-0.79
			c-0.12-0.35-0.64-0.38-0.95-0.38C10.03,10.4,10.03,10.9,10.35,10.91L10.35,10.91z"/>
	</g>
</g>
<g>
	<g>
		<path d="M6.05,10.77c-0.23,0.1-0.45,0.24-0.54,0.49c-0.09,0.25,0,0.48,0.19,0.66c0.16,0.15,0.36,0.26,0.56,0.35
			c0.2,0.09,0.42,0.15,0.61,0.27c0.04,0.03,0.12,0.08,0.13,0.14c0.01,0.06-0.06,0.09-0.11,0.1c-0.1,0.03-0.21,0.02-0.31,0.03
			c-0.14,0-0.29,0.01-0.43,0.01c-0.56,0.01-1.11,0.03-1.67,0.04c-0.32,0.01-0.32,0.51,0,0.5c0.57-0.01,1.15-0.03,1.72-0.04
			c0.43-0.01,1.17,0.06,1.28-0.52c0.11-0.55-0.52-0.78-0.91-0.94c-0.19-0.08-0.41-0.17-0.55-0.32c-0.15-0.17,0.17-0.28,0.29-0.33
			c0.12-0.05,0.15-0.23,0.09-0.34C6.31,10.74,6.17,10.72,6.05,10.77L6.05,10.77z"/>
	</g>
</g>
<g>
	<g>
		<path d="M6.31,15.58c1.42-0.39,2.9-0.35,4.36-0.3c0.32,0.01,0.32-0.49,0-0.5c-1.5-0.05-3.03-0.09-4.5,0.32
			C5.87,15.19,6,15.67,6.31,15.58L6.31,15.58z"/>
	</g>
</g>
</svg>
